<svg width="28" height="23" viewBox="0 0 28 23" fill="none" xmlns="http://www.w3.org/2000/svg">
<path d="M26.9745 19.5386H0.814326C0.364719 19.5386 0.000213623 19.903 0.000213623 20.3527C0.000213623 21.7016 1.09368 22.795 2.44255 22.795H25.3463C26.6951 22.795 27.7886 21.7016 27.7886 20.3527C27.7886 19.903 27.4241 19.5386 26.9745 19.5386Z" fill="#7264D6"/>
<path d="M20.4075 4.07055V3.66349C20.4075 3.355 20.2334 3.07359 19.9575 2.93524L14.2587 0.0858482C14.0298 -0.0286161 13.7595 -0.0286161 13.5305 0.0858482L7.8317 2.93524C7.55583 3.07359 7.38171 3.355 7.38171 3.66349V4.07055C7.38171 4.52054 7.74584 4.88466 8.19583 4.88466H19.5934C20.0434 4.88466 20.4075 4.52054 20.4075 4.07055Z" fill="#7264D6"/>
<path d="M9.82397 6.51282H13.0804V13.0257H9.82397V6.51282Z" fill="#7264D6"/>
<path d="M14.7084 6.51282H17.9649V13.0257H14.7084V6.51282Z" fill="#7264D6"/>
<path d="M5.80993 3.25635H2.44265C1.99267 3.25635 1.62854 3.62047 1.62854 4.07046V17.9104H26.1605V4.07046C26.1605 3.62047 25.7963 3.25635 25.3464 3.25635H21.9791C22.0018 3.39122 22.0356 3.52316 22.0356 3.6634V4.07046C22.0356 5.41722 20.9401 6.5128 19.5933 6.5128V13.0257H20.4074C20.8574 13.0257 21.2215 13.3898 21.2215 13.8398C21.2215 14.2898 20.8574 14.6539 20.4074 14.6539H7.3816C6.93161 14.6539 6.56749 14.2898 6.56749 13.8398C6.56749 13.3898 6.93161 13.0257 7.3816 13.0257H8.19571V6.5128C6.84896 6.5128 5.75338 5.41722 5.75338 4.07046V3.6634C5.75338 3.52316 5.78719 3.39122 5.80993 3.25635Z" fill="#7264D6"/>
</svg>
